name Run_200 02_newCOP3_v24.mot
datacolumns 19
datarows 144
range 2.858333 3.007292
DataType=double
version=3
OpenSimVersion=4.3-2021-08-27-4bc7ad9
endheader
time	R_ground_force_vx	R_ground_force_vy	R_ground_force_vz	R_ground_force_px	R_ground_force_py	R_ground_force_pz	L_ground_force_vx	L_ground_force_vy	L_ground_force_vz	L_ground_force_px	L_ground_force_py	L_ground_force_pz	R_ground_torque_x	R_ground_torque_y	R_ground_torque_z	L_ground_torque_x	L_ground_torque_y	L_ground_torque_z
2.858333	103.870018	484.20224	17.890001	0.671808	0	-0.283895	0	0	0	0	0	0	0	-2.171118	0	0	0	0
2.859375	103.120979	475.421936	17.772968	0.670189	0	-0.28391	0	0	0	0	0	0	0	-2.112862	0	0	0	0
2.860417	102.330208	466.680847	17.631071	0.668575	0	-0.283921	0	0	0	0	0	0	0	-2.053762	0	0	0	0
2.861458	101.498856	457.981567	17.465281	0.6669659999999999	0	-0.283928	0	0	0	0	0	0	0	-1.993971	0	0	0	0
2.8625	100.628174	449.32666	17.276625	0.665361	0	-0.283931	0	0	0	0	0	0	0	-1.933638	0	0	0	0
2.863542	99.719482	440.718811	17.066183	0.66376	0	-0.283929	0	0	0	0	0	0	0	-1.872911	0	0	0	0
2.864583	98.77423899999999	432.160614	16.8351	0.662164	0	-0.283923	0	0	0	0	0	0	0	-1.811935	0	0	0	0
2.865625	97.794037	423.654785	16.584578	0.660573	0	-0.283913	0	0	0	0	0	0	0	-1.750851	0	0	0	0
2.866667	96.780624	415.203857	16.315874	0.658987	0	-0.283898	0	0	0	0	0	0	0	-1.689797	0	0	0	0
2.867708	95.735901	406.810486	16.030304	0.657407	0	-0.283879	0	0	0	0	0	0	0	-1.628907	0	0	0	0
2.86875	94.661911	398.477234	15.729232	0.655834	0	-0.283854	0	0	0	0	0	0	0	-1.568312	0	0	0	0
2.869792	93.560776	390.206696	15.414066	0.65427	0	-0.283824	0	0	0	0	0	0	0	-1.508137	0	0	0	0
2.870833	92.434692	382.001434	15.086254	0.652716	0	-0.283788	0	0	0	0	0	0	0	-1.448503	0	0	0	0
2.871875	91.285843	373.864075	14.74727	0.651172	0	-0.283745	0	0	0	0	0	0	0	-1.389527	0	0	0	0
2.872917	90.11634100000001	365.797333	14.398606	0.649641	0	-0.283695	0	0	0	0	0	0	0	-1.33132	0	0	0	0
2.873958	88.92815400000001	357.803986	14.041767	0.648124	0	-0.283638	0	0	0	0	0	0	0	-1.273988	0	0	0	0
2.875	87.72307600000001	349.886902	13.678246	0.6466229999999999	0	-0.283572	0	0	0	0	0	0	0	-1.217632	0	0	0	0
2.876042	86.50264	342.048981	13.309521	0.645138	0	-0.283497	0	0	0	0	0	0	0	-1.162345	0	0	0	0
2.877083	85.26812	334.293304	12.937039	0.6436730000000001	0	-0.283413	0	0	0	0	0	0	0	-1.108217	0	0	0	0
2.878125	84.02050800000001	326.622833	12.562206	0.642227	0	-0.283319	0	0	0	0	0	0	0	-1.05533	0	0	0	0
2.879167	82.760559	319.040588	12.186365	0.640803	0	-0.283214	0	0	0	0	0	0	0	-1.00376	0	0	0	0
2.880208	81.48877	311.54953	11.810793	0.639401	0	-0.283098	0	0	0	0	0	0	0	-0.95358	0	0	0	0
2.88125	80.205505	304.152435	11.436685	0.638025	0	-0.282969	0	0	0	0	0	0	0	-0.904851	0	0	0	0
2.882292	78.910995	296.851868	11.065143	0.636674	0	-0.282828	0	0	0	0	0	0	0	-0.8576319999999999	0	0	0	0
2.883333	77.605453	289.650116	10.697167	0.6353490000000001	0	-0.282674	0	0	0	0	0	0	0	-0.811975	0	0	0	0
2.884375	76.289131	282.549164	10.333651	0.634053	0	-0.282507	0	0	0	0	0	0	0	-0.7679240000000001	0	0	0	0
2.885417	74.962395	275.550537	9.975368	0.632786	0	-0.282326	0	0	0	0	0	0	0	-0.725518	0	0	0	0
2.886458	73.625771	268.655396	9.622977000000001	0.631549	0	-0.282133	0	0	0	0	0	0	0	-0.684789	0	0	0	0
2.8875	72.279991	261.864441	9.277010000000001	0.630341	0	-0.281925	0	0	0	0	0	0	0	-0.645763	0	0	0	0
2.888542	70.926018	255.177963	8.937879000000001	0.6291639999999999	0	-0.281704	0	0	0	0	0	0	0	-0.608461	0	0	0	0
2.889583	69.56506299999999	248.595718	8.605873000000001	0.628016	0	-0.28147	0	0	0	0	0	0	0	-0.572896	0	0	0	0
2.890625	68.198547	242.117126	8.281166000000001	0.626897	0	-0.281222	0	0	0	0	0	0	0	-0.539077	0	0	0	0
2.891667	66.82811700000001	235.741119	7.96382	0.625806	0	-0.280962	0	0	0	0	0	0	0	-0.507006	0	0	0	0
2.892708	65.455566	229.466309	7.653794	0.624741	0	-0.280689	0	0	0	0	0	0	0	-0.476681	0	0	0	0
2.89375	64.082825	223.290955	7.350951	0.6237	0	-0.280402	0	0	0	0	0	0	0	-0.448093	0	0	0	0
2.894792	62.711872	217.213074	7.055071	0.62268	0	-0.280103	0	0	0	0	0	0	0	-0.421229	0	0	0	0
2.895833	61.344711	211.230453	6.765865	0.621677	0	-0.279792	0	0	0	0	0	0	0	-0.396072	0	0	0	0
2.896875	59.983307	205.340759	6.482986	0.620687	0	-0.279467	0	0	0	0	0	0	0	-0.372599	0	0	0	0
2.897917	58.629517	199.541611	6.206044	0.619707	0	-0.279129	0	0	0	0	0	0	0	-0.350784	0	0	0	0
2.898958	57.285072	193.830719	5.934621	0.6187319999999999	0	-0.278779	0	0	0	0	0	0	0	-0.330596	0	0	0	0
2.9	55.951515	188.205872	5.668291	0.617756	0	-0.278415	0	0	0	0	0	0	0	-0.312	0	0	0	0
2.901042	54.630165	182.665192	5.406627	0.616775	0	-0.278039	0	0	0	0	0	0	0	-0.29496	0	0	0	0
2.902083	53.322109	177.207077	5.149224	0.615785	0	-0.277649	0	0	0	0	0	0	0	-0.279434	0	0	0	0
2.903125	52.028152	171.830414	4.89571	0.6147820000000001	0	-0.277245	0	0	0	0	0	0	0	-0.265378	0	0	0	0
2.904167	50.748829	166.534561	4.645761	0.613761	0	-0.276829	0	0	0	0	0	0	0	-0.252747	0	0	0	0
2.905208	49.484398	161.319397	4.399112	0.612722	0	-0.276399	0	0	0	0	0	0	0	-0.24149	0	0	0	0
2.90625	48.23484	156.185379	4.155568	0.611661	0	-0.275955	0	0	0	0	0	0	0	-0.231558	0	0	0	0
2.907292	46.999889	151.133469	3.915012	0.610578	0	-0.275497	0	0	0	0	0	0	0	-0.222898	0	0	0	0
2.908333	45.779053	146.165115	3.677414	0.609474	0	-0.275025	0	0	0	0	0	0	0	-0.215455	0	0	0	0
2.909375	44.571655	141.282196	3.442831	0.6083499999999999	0	-0.274539	0	0	0	0	0	0	0	-0.209173	0	0	0	0
2.910417	43.376869	136.486877	3.211412	0.607209	0	-0.274037	0	0	0	0	0	0	0	-0.203995	0	0	0	0
2.911458	42.193779	131.781586	2.983392	0.606053	0	-0.27352	0	0	0	0	0	0	0	-0.199863	0	0	0	0
2.9125	41.021423	127.168785	2.759095	0.604888	0	-0.272986	0	0	0	0	0	0	0	-0.196718	0	0	0	0
2.913542	39.858841	122.651001	2.538919	0.603718	0	-0.272434	0	0	0	0	0	0	0	-0.1945	0	0	0	0
2.914583	38.705109	118.230606	2.323333	0.602548	0	-0.271862	0	0	0	0	0	0	0	-0.193148	0	0	0	0
2.915625	37.559399	113.909775	2.112865	0.601386	0	-0.27127	0	0	0	0	0	0	0	-0.192602	0	0	0	0
2.916667	36.420975	109.690414	1.908086	0.600238	0	-0.270655	0	0	0	0	0	0	0	-0.192799	0	0	0	0
2.917708	35.289227	105.574097	1.709596	0.5991109999999999	0	-0.270016	0	0	0	0	0	0	0	-0.193677	0	0	0	0
2.91875	34.163666	101.562019	1.518009	0.598014	0	-0.269351	0	0	0	0	0	0	0	-0.195175	0	0	0	0
2.919792	33.043938	97.654968	1.333935	0.596957	0	-0.268657	0	0	0	0	0	0	0	-0.19723	0	0	0	0
2.920833	31.929783	93.85335499999999	1.157966	0.595948	0	-0.267932	0	0	0	0	0	0	0	-0.19978	0	0	0	0
2.921875	30.821053	90.157188	0.990653	0.5949989999999999	0	-0.267174	0	0	0	0	0	0	0	-0.202761	0	0	0	0
2.922917	29.71768	86.566101	0.832496	0.594122	0	-0.266381	0	0	0	0	0	0	0	-0.20611	0	0	0	0
2.923958	28.619682	83.079414	0.683928	0.593329	0	-0.26555	0	0	0	0	0	0	0	-0.209765	0	0	0	0
2.925	27.527153	79.69612100000001	0.5452979999999999	0.592632	0	-0.264679	0	0	0	0	0	0	0	-0.213662	0	0	0	0
2.926042	26.440275	76.414978	0.416867	0.592047	0	-0.263766	0	0	0	0	0	0	0	-0.217739	0	0	0	0
2.927083	0	0	0	0	0	0	0	0	0	0	0	0	0	0	0	0	0	0
2.928125	0	0	0	0	0	0	0	0	0	0	0	0	0	0	0	0	0	0
2.929167	0	0	0	0	0	0	0	0	0	0	0	0	0	0	0	0	0	0
2.930208	0	0	0	0	0	0	0	0	0	0	0	0	0	0	0	0	0	0
2.93125	0	0	0	0	0	0	0	0	0	0	0	0	0	0	0	0	0	0
2.932292	0	0	0	0	0	0	0	0	0	0	0	0	0	0	0	0	0	0
2.933333	0	0	0	0	0	0	0	0	0	0	0	0	0	0	0	0	0	0
2.934375	0	0	0	0	0	0	0	0	0	0	0	0	0	0	0	0	0	0
2.935417	0	0	0	0	0	0	0	0	0	0	0	0	0	0	0	0	0	0
2.936458	0	0	0	0	0	0	0	0	0	0	0	0	0	0	0	0	0	0
2.9375	0	0	0	0	0	0	0	0	0	0	0	0	0	0	0	0	0	0
2.938542	0	0	0	0	0	0	0	0	0	0	0	0	0	0	0	0	0	0
2.939583	0	0	0	0	0	0	0	0	0	0	0	0	0	0	0	0	0	0
2.940625	0	0	0	0	0	0	0	0	0	0	0	0	0	0	0	0	0	0
2.941667	0	0	0	0	0	0	0	0	0	0	0	0	0	0	0	0	0	0
2.942708	0	0	0	0	0	0	0	0	0	0	0	0	0	0	0	0	0	0
2.94375	0	0	0	0	0	0	0	0	0	0	0	0	0	0	0	0	0	0
2.944792	0	0	0	0	0	0	0	0	0	0	0	0	0	0	0	0	0	0
2.945833	0	0	0	0	0	0	0	0	0	0	0	0	0	0	0	0	0	0
2.946875	0	0	0	0	0	0	0	0	0	0	0	0	0	0	0	0	0	0
2.947917	0	0	0	0	0	0	0	0	0	0	0	0	0	0	0	0	0	0
2.948958	0	0	0	0	0	0	0	0	0	0	0	0	0	0	0	0	0	0
2.95	0	0	0	0	0	0	0	0	0	0	0	0	0	0	0	0	0	0
2.951042	0	0	0	0	0	0	0	0	0	0	0	0	0	0	0	0	0	0
2.952083	0	0	0	0	0	0	0	0	0	0	0	0	0	0	0	0	0	0
2.953125	0	0	0	0	0	0	0	0	0	0	0	0	0	0	0	0	0	0
2.954167	0	0	0	0	0	0	0	0	0	0	0	0	0	0	0	0	0	0
2.955208	0	0	0	0	0	0	0	0	0	0	0	0	0	0	0	0	0	0
2.95625	0	0	0	0	0	0	0	0	0	0	0	0	0	0	0	0	0	0
2.957292	0	0	0	0	0	0	0	0	0	0	0	0	0	0	0	0	0	0
2.958333	0	0	0	0	0	0	0	0	0	0	0	0	0	0	0	0	0	0
2.959375	0	0	0	0	0	0	0	0	0	0	0	0	0	0	0	0	0	0
2.960417	0	0	0	0	0	0	0	0	0	0	0	0	0	0	0	0	0	0
2.961458	0	0	0	0	0	0	0	0	0	0	0	0	0	0	0	0	0	0
2.9625	0	0	0	0	0	0	0	0	0	0	0	0	0	0	0	0	0	0
2.963542	0	0	0	0	0	0	0	0	0	0	0	0	0	0	0	0	0	0
2.964583	0	0	0	0	0	0	0	0	0	0	0	0	0	0	0	0	0	0
2.965625	0	0	0	0	0	0	0	0	0	0	0	0	0	0	0	0	0	0
2.966667	0	0	0	0	0	0	0	0	0	0	0	0	0	0	0	0	0	0
2.967708	0	0	0	0	0	0	0	0	0	0	0	0	0	0	0	0	0	0
2.96875	0	0	0	0	0	0	0	0	0	0	0	0	0	0	0	0	0	0
2.969792	0	0	0	0	0	0	0	0	0	0	0	0	0	0	0	0	0	0
2.970833	0	0	0	0	0	0	0	0	0	0	0	0	0	0	0	0	0	0
2.971875	0	0	0	0	0	0	0	0	0	0	0	0	0	0	0	0	0	0
2.972917	0	0	0	0	0	0	0	0	0	0	0	0	0	0	0	0	0	0
2.973958	0	0	0	0	0	0	0	0	0	0	0	0	0	0	0	0	0	0
2.975	0	0	0	0	0	0	0	0	0	0	0	0	0	0	0	0	0	0
2.976042	0	0	0	0	0	0	0	0	0	0	0	0	0	0	0	0	0	0
2.977083	0	0	0	0	0	0	0	0	0	0	0	0	0	0	0	0	0	0
2.978125	0	0	0	0	0	0	0	0	0	0	0	0	0	0	0	0	0	0
2.979167	0	0	0	0	0	0	0	0	0	0	0	0	0	0	0	0	0	0
2.980208	0	0	0	0	0	0	0	0	0	0	0	0	0	0	0	0	0	0
2.98125	0	0	0	0	0	0	0	0	0	0	0	0	0	0	0	0	0	0
2.982292	0	0	0	0	0	0	0	0	0	0	0	0	0	0	0	0	0	0
2.983333	0	0	0	0	0	0	-16.590391	79.536469	-2.003406	0.996245	0	-0.358019	0	0	0	-0	1.080405	-0
2.984375	0	0	0	0	0	0	-17.176962	88.708099	-1.968995	0.997675	0	-0.359058	0	0	0	-0	1.160109	-0
2.985417	0	0	0	0	0	0	-17.666161	98.789108	-1.911452	0.998892	0	-0.359866	0	0	0	-0	1.242375	-0
2.986458	0	0	0	0	0	0	-18.045633	109.828033	-1.828547	0.9999169999999999	0	-0.360471	0	0	0	-0	1.32717	-0
2.9875	0	0	0	0	0	0	-18.303957	121.869812	-1.71817	1.000767	0	-0.360896	0	0	0	-0	1.414454	-0
2.988542	0	0	0	0	0	0	-18.430992	134.954391	-1.57838	1.001454	0	-0.361162	0	0	0	-0	1.504176	-0
2.989583	0	0	0	0	0	0	-18.418255	149.115143	-1.407469	1.001988	0	-0.36129	0	0	0	-0	1.596276	-0
2.990625	0	0	0	0	0	0	-18.259262	164.377182	-1.204025	1.002378	0	-0.361295	0	0	0	-0	1.690681	-0
2.991667	0	0	0	0	0	0	-17.949871	180.755722	-0.966992	1.002631	0	-0.361195	0	0	0	-0	1.787309	-0
2.992708	0	0	0	0	0	0	-17.488581	198.254349	-0.695734	1.002755	0	-0.361003	0	0	0	-0	1.886063	-0
2.99375	0	0	0	0	0	0	-16.876781	216.863419	-0.390101	1.002756	0	-0.360733	0	0	0	-0	1.986833	-0
2.994792	0	0	0	0	0	0	-16.11894	236.558578	-0.050486	1.002643	0	-0.360396	0	0	0	-0	2.089498	-0
2.995833	0	0	0	0	0	0	-15.222725	257.2995	0.322117	1.002423	0	-0.360002	0	0	0	-0	2.19392	-0
2.996875	0	0	0	0	0	0	-14.199026	279.028992	0.726065	1.002105	0	-0.359561	0	0	0	-0	2.299945	-0
2.997917	0	0	0	0	0	0	-13.061904	301.672211	1.159029	1.001697	0	-0.359082	0	0	0	-0	2.407406	-0
2.998958	0	0	0	0	0	0	-11.828431	325.136719	1.617958	1.001207	0	-0.358572	0	0	0	-0	2.516117	-0
3	0	0	0	0	0	0	-10.518443	349.312683	2.099071	1.000645	0	-0.358038	0	0	0	-0	2.625875	-0
3.001042	0	0	0	0	0	0	-9.154203000000001	374.073792	2.597846	1.000018	0	-0.357486	0	0	0	-0	2.736461	-0
3.002083	0	0	0	0	0	0	-7.759985	399.278595	3.109044	0.999336	0	-0.356921	0	0	0	-0	2.847638	-0
3.003125	0	0	0	0	0	0	-6.361585	424.772614	3.626738	0.9986080000000001	0	-0.356349	0	0	0	-0	2.959147	-0
3.004167	0	0	0	0	0	0	-4.985783	450.390839	4.144369	0.997843	0	-0.355775	0	0	0	-0	3.070715	-0
3.005208	0	0	0	0	0	0	-3.659775	475.960663	4.654821	0.997048	0	-0.355201	0	0	0	-0	3.182047	-0
3.00625	0	0	0	0	0	0	-2.410581	501.305298	5.150519	0.996232	0	-0.354633	0	0	0	-0	3.292831	-0
3.007292	0	0	0	0	0	0	-1.264465	526.2476809999999	5.623548	0.995405	0	-0.354074	0	0	0	-0	3.402735	-0
